{"accessors" : [{"bufferView" : 0, "byteOffset" : 0, "componentType" : 5123, "count" : 2016, "type" : "SCALAR", "max" : [1431], "min" : [0]}, {"bufferView" : 1, "byteOffset" : 0, "componentType" : 5126, "count" : 1432, "type" : "VEC3", "max" : [0.5607209801673889, 2.375969886779785, 0.27734100818634033], "min" : [-0.5608369708061218, 1.5019680261611938, -1.1698240041732788], "name" : "POSITION"}, {"bufferView" : 1, "byteOffset" : 12, "componentType" : 5126, "count" : 1432, "type" : "VEC3", "max" : [0.9999552369117737, 0.9969501495361328, 0.9951604604721069], "min" : [-0.9999552369117737, -0.9998441934585571, -0.9922838807106018], "name" : "NORMAL"}, {"bufferView" : 0, "byteOffset" : 4032, "componentType" : 5123, "count" : 2388, "type" : "SCALAR", "max" : [1691], "min" : [0]}, {"bufferView" : 2, "byteOffset" : 0, "componentType" : 5126, "count" : 1692, "type" : "VEC3", "max" : [0.9125159978866577, 3.3572518825531006, 0.1032940000295639], "min" : [-0.9126780033111572, 1.215311050415039, -1.9452849626541138], "name" : "POSITION"}, {"bufferView" : 2, "byteOffset" : 12, "componentType" : 5126, "count" : 1692, "type" : "VEC3", "max" : [0.9885290265083313, 0.9987683892250061, 0.998518168926239], "min" : [-0.9885188341140747, -0.9808266162872314, -0.999955415725708], "name" : "NORMAL"}, {"bufferView" : 0, "byteOffset" : 8808, "componentType" : 5123, "count" : 72, "type" : "SCALAR", "max" : [63], "min" : [0]}, {"bufferView" : 3, "byteOffset" : 0, "componentType" : 5126, "count" : 64, "type" : "VEC3", "max" : [0.12358199805021286, 2.0960259437561035, 0.29954299330711365], "min" : [-0.10576099902391434, 2.0206780433654785, 0.2671569883823395], "name" : "POSITION"}, {"bufferView" : 3, "byteOffset" : 12, "componentType" : 5126, "count" : 64, "type" : "VEC3", "max" : [0.5039004683494568, 0.20259928703308105, 0.9987531900405884], "min" : [-0.5026029348373413, -0.1068997010588646, 0.8528008460998535], "name" : "NORMAL"}, {"bufferView" : 0, "byteOffset" : 8952, "componentType" : 5123, "count" : 1032, "type" : "SCALAR", "max" : [854], "min" : [0]}, {"bufferView" : 4, "byteOffset" : 0, "componentType" : 5126, "count" : 855, "type" : "VEC3", "max" : [0.23809599876403809, 2.2755370140075684, 0.2964250147342682], "min" : [-0.22058899700641632, 1.8174220323562622, -0.16654600203037262], "name" : "POSITION"}, {"bufferView" : 4, "byteOffset" : 12, "componentType" : 5126, "count" : 855, "type" : "VEC3", "max" : [0.9828996062278748, 0.9816721677780151, 0.9966158866882324], "min" : [-0.9828996062278748, -0.9816721677780151, -0.9987531900405884], "name" : "NORMAL"}, {"bufferView" : 0, "byteOffset" : 11016, "componentType" : 5123, "count" : 2016, "type" : "SCALAR", "max" : [1427], "min" : [0]}, {"bufferView" : 5, "byteOffset" : 0, "componentType" : 5126, "count" : 1428, "type" : "VEC3", "max" : [1.6809569597244263, 2.107973098754883, -0.062403999269008636], "min" : [-1.6811350584030151, 0.7448170185089111, -0.5762209892272949], "name" : "POSITION"}, {"bufferView" : 5, "byteOffset" : 12, "componentType" : 5126, "count" : 1428, "type" : "VEC3", "max" : [0.9607530236244202, 0.8872727155685425, 0.9955845475196838], "min" : [-0.9607530236244202, -0.9992393255233765, -0.9906863570213318], "name" : "NORMAL"}], "asset" : {"generator" : "Aspose.3D 23.2", "version" : "2.0"}, "buffers" : [{"uri" : "data:application/octet-stream;base64,", "byteLength" : 195648}], "bufferViews" : [{"buffer" : 0, "byteOffset" : 0, "byteLength" : 15048, "target" : 34963}, {"buffer" : 0, "byteOffset" : 15052, "byteLength" : 48384, "byteStride" : 24, "target" : 34962}, {"buffer" : 0, "byteOffset" : 63440, "byteLength" : 57312, "byteStride" : 24, "target" : 34962}, {"buffer" : 0, "byteOffset" : 120756, "byteLength" : 1728, "byteStride" : 24, "target" : 34962}, {"buffer" : 0, "byteOffset" : 122488, "byteLength" : 24768, "byteStride" : 24, "target" : 34962}, {"buffer" : 0, "byteOffset" : 147260, "byteLength" : 48384, "byteStride" : 24, "target" : 34962}], "materials" : [{"name" : "Alpaking_Main", "pbrMetallicRoughness" : {"baseColorFactor" : [0.300596, 0.180657, 0.009336, 1], "metallicFactor" : 0, "roughnessFactor" : 0}, "emissiveFactor" : [0, 0, 0], "alphaMode" : "OPAQUE", "doubleSided" : false}, {"name" : "Alpaking_Secondary", "pbrMetallicRoughness" : {"baseColorFactor" : [0.102589, 0.085206, 0.043917, 1], "metallicFactor" : 0, "roughnessFactor" : 0}, "emissiveFactor" : [0, 0, 0], "alphaMode" : "OPAQUE", "doubleSided" : false}, {"name" : "Eye_Black", "pbrMetallicRoughness" : {"baseColorFactor" : [0.010649, 0.01098, 0.012795, 1], "metallicFactor" : 0, "roughnessFactor" : 0}, "emissiveFactor" : [0, 0, 0], "alphaMode" : "OPAQUE", "doubleSided" : false}, {"name" : "Eye_White", "pbrMetallicRoughness" : {"baseColorFactor" : [0.220315, 0.229477, 0.280441, 1], "metallicFactor" : 0, "roughnessFactor" : 0}, "emissiveFactor" : [0, 0, 0], "alphaMode" : "OPAQUE", "doubleSided" : false}, {"name" : "Wings", "pbrMetallicRoughness" : {"baseColorFactor" : [0.176204, 0.176204, 0.176204, 1], "metallicFactor" : 0, "roughnessFactor" : 0}, "emissiveFactor" : [0, 0, 0], "alphaMode" : "OPAQUE", "doubleSided" : false}], "meshes" : [{"primitives" : [{"attributes" : {"POSITION" : 1, "NORMAL" : 2}, "indices" : 0, "material" : 0, "mode" : 4}, {"attributes" : {"POSITION" : 4, "NORMAL" : 5}, "indices" : 3, "material" : 1, "mode" : 4}, {"attributes" : {"POSITION" : 7, "NORMAL" : 8}, "indices" : 6, "material" : 2, "mode" : 4}, {"attributes" : {"POSITION" : 10, "NORMAL" : 11}, "indices" : 9, "material" : 3, "mode" : 4}, {"attributes" : {"POSITION" : 13, "NORMAL" : 14}, "indices" : 12, "material" : 4, "mode" : 4}], "name" : ""}], "nodes" : [{"mesh" : 0, "name" : "Alpaking_Sphere.052"}], "scene" : 0, "scenes" : [{"nodes" : [0]}]}